<?xml version="1.0" standalone="no"?>
<!DOCTYPE svg PUBLIC "-//W3C//DTD SVG 20010904//EN"
 "http://www.w3.org/TR/2001/REC-SVG-20010904/DTD/svg10.dtd">
<svg version="1.0" xmlns="http://www.w3.org/2000/svg"
 width="199.000000pt" height="199.000000pt" viewBox="0 0 199.000000 199.000000"
 preserveAspectRatio="xMidYMid meet">
<metadata>
Created by potrace 1.11, written by Peter Selinger 2001-2013
</metadata>
<g transform="translate(0.000000,199.000000) scale(0.100000,-0.100000)"
fill="#000000" stroke="none">
<path d="M855 1895 c-85 -19 -162 -70 -191 -126 -14 -29 -14 -30 14 -46 40
-23 72 -73 74 -115 2 -49 -28 -87 -128 -162 -47 -35 -96 -78 -109 -97 -41 -55
-31 -136 22 -185 26 -24 26 -25 6 -39 -44 -31 -66 -120 -43 -179 5 -14 25 -40
44 -58 26 -25 36 -45 42 -83 4 -27 9 -52 9 -55 1 -3 5 -25 9 -50 9 -45 44 -90
70 -90 12 0 29 -48 43 -120 18 -98 75 -339 84 -356 31 -60 304 -67 367 -10 12
10 24 45 32 89 8 39 14 74 15 77 1 3 4 19 8 35 4 17 9 39 11 50 3 11 10 43 16
70 6 28 14 61 17 75 3 14 6 32 8 40 2 8 4 20 4 27 1 7 13 18 28 25 44 22 62
58 78 157 11 73 20 100 39 120 39 42 74 117 81 176 10 77 -9 146 -58 207 -36
46 -40 57 -42 112 -2 88 -46 162 -121 204 -8 5 -21 33 -28 64 -7 31 -25 77
-40 102 -63 108 -227 172 -361 141z m207 -73 c82 -36 139 -114 151 -204 5 -43
-3 -53 -93 -123 -43 -33 -58 -51 -51 -58 12 -12 68 22 132 80 39 35 42 36 67
22 45 -25 82 -89 89 -151 5 -52 4 -58 -22 -82 -36 -33 -115 -86 -191 -127 -73
-39 -81 -46 -68 -59 13 -13 83 20 197 97 110 73 111 73 159 -6 45 -73 21 -217
-48 -282 -25 -24 -26 -24 -267 -25 -133 -1 -248 -2 -254 -3 -9 -1 -13 -20 -13
-60 0 -69 -18 -98 -51 -81 -16 9 -19 22 -19 75 0 45 -4 65 -12 66 -7 1 -44 2
-83 3 -80 3 -109 15 -130 56 -20 38 -19 80 2 110 23 34 37 44 118 86 76 40
236 146 256 170 8 10 9 18 2 25 -7 7 -29 -4 -72 -36 -86 -66 -229 -144 -252
-138 -28 8 -69 60 -69 88 0 48 21 74 113 143 114 86 139 118 145 187 5 57 -9
93 -53 137 l-26 27 31 28 c55 50 96 63 185 60 54 -2 95 -10 127 -25z m-339
-971 c4 -1 7 -21 7 -45 0 -78 56 -119 120 -88 30 15 41 37 44 92 1 16 5 32 9
36 5 5 332 9 428 5 14 -1 15 -8 9 -43 -5 -24 -11 -61 -14 -83 -12 -72 -3 -70
-324 -70 -158 0 -297 1 -309 3 -23 4 -38 34 -48 97 -3 22 -8 52 -11 67 -6 32
10 37 89 29z m494 -250 c19 -1 21 -4 13 -33 -10 -34 -18 -72 -26 -123 -3 -16
-12 -55 -19 -85 -8 -31 -17 -72 -20 -93 -4 -20 -12 -56 -18 -79 -12 -40 -16
-43 -62 -53 -101 -22 -230 -7 -245 28 -8 18 -70 288 -86 377 -3 14 -7 33 -10
42 -3 10 2 18 12 20 14 2 371 2 461 -1z"/>
</g>
</svg>
